# Blender v2.75 (sub 0) OBJ File: 'Stanowisko.blend'
# www.blender.org
o Barrier_Circle.005
v -0.151669 6.371361 -0.042507
v -0.151669 6.371361 0.022007
v -0.151669 6.616481 -0.042507
v -0.151669 6.616481 0.022007
v 0.093452 6.371361 -0.042507
v 0.093452 6.371361 0.022007
v 0.093452 6.616481 -0.042507
v 0.093452 6.616481 0.022007
v -2.811106 6.365358 -0.042507
v -2.811106 6.365358 0.022007
v -2.811106 6.610479 -0.042507
v -2.811106 6.610479 0.022007
v -2.565985 6.365358 -0.042507
v -2.565985 6.365358 0.022007
v -2.565985 6.610479 -0.042507
v -2.565985 6.610479 0.022007
v -6.628868 2.569381 -0.042507
v -6.628868 2.569381 0.022007
v -6.628868 2.814502 -0.042507
v -6.628868 2.814502 0.022007
v -6.383748 2.569381 -0.042507
v -6.383748 2.569381 0.022007
v -6.383748 2.814502 -0.042507
v -6.383748 2.814502 0.022007
v -6.617163 -2.813602 -0.042507
v -6.617163 -2.813602 0.022007
v -6.617163 -2.568482 -0.042507
v -6.617163 -2.568482 0.022007
v -6.372042 -2.813602 -0.042507
v -6.372042 -2.813602 0.022007
v -6.372042 -2.568482 -0.042507
v -6.372042 -2.568482 0.022007
v -2.815108 -6.619826 -0.042507
v -2.815108 -6.619826 0.022007
v -2.815108 -6.374705 -0.042507
v -2.815108 -6.374705 0.022007
v -2.569988 -6.619826 -0.042507
v -2.569988 -6.619826 0.022007
v -2.569988 -6.374705 -0.042507
v -2.569988 -6.374705 0.022007
v -0.020000 6.537160 1.242353
v -0.000000 6.517160 1.242353
v -0.020000 6.537160 -0.300000
v 0.000000 6.517160 -0.300000
v -0.000000 6.487160 1.242353
v -0.020000 6.467161 1.242353
v 0.000000 6.487160 -0.300000
v -0.020000 6.467161 -0.300000
v -0.070000 6.517160 -0.300000
v -0.050000 6.537160 -0.300000
v -0.050000 6.467161 -0.300000
v -0.070000 6.487160 -0.300000
v -0.070001 6.487160 1.242353
v -0.050001 6.467161 1.242353
v -0.050001 6.537160 1.242353
v -0.070001 6.517160 1.242353
v -2.677792 6.537160 1.242353
v -2.657792 6.517160 1.242353
v -2.677792 6.537160 -0.300000
v -2.657792 6.517160 -0.300000
v -2.657792 6.487160 1.242353
v -2.677792 6.467161 1.242353
v -2.657792 6.487160 -0.300000
v -2.677792 6.467161 -0.300000
v -2.727792 6.517160 -0.300000
v -2.707792 6.537160 -0.300000
v -2.707792 6.467161 -0.300000
v -2.727792 6.487160 -0.300000
v -2.727792 6.487160 1.242353
v -2.707792 6.467161 1.242353
v -2.707792 6.537160 1.242353
v -2.727792 6.517160 1.242353
v -6.487158 2.727777 1.242353
v -6.467158 2.707778 1.242353
v -6.487158 2.727777 -0.300000
v -6.467158 2.707778 -0.300000
v -6.467158 2.677777 1.242353
v -6.487158 2.657777 1.242353
v -6.467158 2.677777 -0.300000
v -6.487158 2.657777 -0.300000
v -6.537158 2.707777 -0.300000
v -6.517158 2.727777 -0.300000
v -6.517158 2.657777 -0.300000
v -6.537158 2.677777 -0.300000
v -6.537158 2.677777 1.242353
v -6.517159 2.657777 1.242353
v -6.517159 2.727777 1.242353
v -6.537158 2.707777 1.242353
v -6.487158 -2.657778 1.242353
v -6.467158 -2.677777 1.242353
v -6.487157 -2.657778 -0.300000
v -6.467157 -2.677777 -0.300000
v -6.467158 -2.707778 1.242353
v -6.487158 -2.727777 1.242353
v -6.467157 -2.707778 -0.300000
v -6.487157 -2.727777 -0.300000
v -6.537158 -2.677778 -0.300000
v -6.517158 -2.657778 -0.300000
v -6.517158 -2.727777 -0.300000
v -6.537158 -2.707778 -0.300000
v -6.537158 -2.707778 1.242353
v -6.517158 -2.727777 1.242353
v -6.517158 -2.657778 1.242353
v -6.537158 -2.677778 1.242353
v -2.677792 -6.467156 1.242353
v -2.657792 -6.487156 1.242353
v -2.677792 -6.467156 -0.300000
v -2.657792 -6.487156 -0.300000
v -2.657792 -6.517157 1.242353
v -2.677792 -6.537156 1.242353
v -2.657792 -6.517157 -0.300000
v -2.677792 -6.537156 -0.300000
v -2.727792 -6.487157 -0.300000
v -2.707792 -6.467156 -0.300000
v -2.707792 -6.537156 -0.300000
v -2.727792 -6.517157 -0.300000
v -2.727792 -6.517157 1.242353
v -2.707792 -6.537156 1.242353
v -2.707792 -6.467156 1.242353
v -2.727792 -6.487157 1.242353
v -0.020000 -6.467156 1.242353
v -0.000000 -6.487156 1.242353
v -0.020000 -6.467156 -0.300000
v 0.000000 -6.487156 -0.300000
v -0.000000 -6.517157 1.242353
v -0.020000 -6.537156 1.242353
v 0.000000 -6.517157 -0.300000
v -0.020000 -6.537156 -0.300000
v -0.070000 -6.487157 -0.300000
v -0.050000 -6.467156 -0.300000
v -0.050000 -6.537156 -0.300000
v -0.070000 -6.517157 -0.300000
v -0.070001 -6.517157 1.242353
v -0.050001 -6.537156 1.242353
v -0.050001 -6.467156 1.242353
v -0.070001 -6.487157 1.242353
v -0.000000 6.467156 1.220000
v -0.000000 6.487156 1.200000
v -2.687069 6.487156 1.200000
v -2.678785 6.467157 1.220000
v -6.487157 2.687068 1.200000
v -6.467157 2.678784 1.220000
v -6.487157 -2.687068 1.200000
v -6.467158 -2.678784 1.220000
v -2.687068 -6.487157 1.200000
v -2.678784 -6.467156 1.220000
v 0.000000 -6.487157 1.200000
v 0.000000 -6.467156 1.220000
v -0.000000 6.487156 1.270000
v -0.000000 6.467156 1.250000
v -2.678785 6.467157 1.250000
v -2.687069 6.487157 1.270000
v -6.467157 2.678784 1.250000
v -6.487157 2.687068 1.270000
v -6.467158 -2.678784 1.250000
v -6.487158 -2.687068 1.270000
v -2.678784 -6.467156 1.250000
v -2.687068 -6.487157 1.270000
v 0.000000 -6.467156 1.250000
v 0.000000 -6.487157 1.270000
v 0.000000 -6.537157 1.220000
v 0.000000 -6.517157 1.200000
v 0.000000 -6.517157 1.270000
v 0.000000 -6.537157 1.250000
v -2.707779 -6.537157 1.250000
v -2.699495 -6.517157 1.270000
v -2.699495 -6.517157 1.200000
v -2.707779 -6.537157 1.220000
v -6.537158 -2.707779 1.250000
v -6.517158 -2.699494 1.270000
v -6.517158 -2.699494 1.200000
v -6.537158 -2.707779 1.220000
v -6.537157 2.707779 1.250000
v -6.517157 2.699495 1.270000
v -6.517157 2.699495 1.200000
v -6.537157 2.707779 1.220000
v -2.707780 6.537158 1.250000
v -2.699495 6.517157 1.270000
v -2.699495 6.517157 1.200000
v -2.707780 6.537158 1.220000
v -0.000000 6.537157 1.250000
v -0.000000 6.517156 1.270000
v -0.000000 6.517156 1.200000
v -0.000000 6.537157 1.220000
v -0.169082 -6.619826 -0.042507
v -0.169082 -6.619826 0.022007
v -0.169082 -6.374705 -0.042507
v -0.169082 -6.374705 0.022007
v 0.076038 -6.619826 -0.042507
v 0.076038 -6.619826 0.022007
v 0.076038 -6.374705 -0.042507
v 0.076038 -6.374705 0.022007
vt 0.000000 0.000000
vt 0.083472 0.028533
vt 0.092930 0.035585
vt 0.056994 0.035585
vt 0.082989 0.008662
vt 0.089654 0.000058
vt 0.063176 0.007111
vt 0.053718 0.000058
vt 0.063659 0.026982
vt 0.063405 0.002511
vt 0.064061 0.000061
vt 0.055931 0.988081
vt 0.055953 0.984350
vt 0.055187 0.984594
vt 0.063537 0.005317
vt 0.056571 0.985389
vt 0.056040 0.984623
vt 0.063405 0.005317
vt 0.064132 0.004270
vt 0.055281 0.985383
vt 0.055077 0.986551
vt 0.056167 0.986535
vt 0.063919 0.004268
vt 0.064013 0.005672
vt 0.010727 0.002493
vt 0.011261 0.004240
vt 0.000306 0.978262
vt 0.001588 0.978300
vt 0.000971 0.977498
vt 0.010539 0.005277
vt 0.000894 0.980893
vt 0.001195 0.979478
vt 0.010540 0.002492
vt 0.011143 0.005632
vt 0.000948 0.977257
vt 0.000202 0.977490
vt 0.000061 0.979473
vt 0.011200 0.000061
vt 0.011052 0.004238
vt 0.022987 0.004316
vt 0.023509 0.005376
vt 0.032801 0.996253
vt 0.033702 0.998204
vt 0.033520 0.997034
vt 0.022780 0.004319
vt 0.032705 0.998234
vt 0.032858 0.999939
vt 0.022839 0.000061
vt 0.023382 0.005377
vt 0.033589 0.996282
vt 0.032824 0.995986
vt 0.032255 0.997049
vt 0.023509 0.002538
vt 0.045845 0.003443
vt 0.046362 0.002717
vt 0.054745 0.980139
vt 0.054955 0.980137
vt 0.054414 0.981890
vt 0.044840 0.001491
vt 0.054835 0.978740
vt 0.054361 0.979094
vt 0.044959 0.003466
vt 0.045677 0.000061
vt 0.054892 0.984330
vt 0.054229 0.981891
vt 0.054229 0.979095
vt 0.045741 0.003715
vt 0.045037 0.002669
vt 0.011383 0.001574
vt 0.011680 0.002812
vt 0.022658 0.969511
vt 0.022450 0.969514
vt 0.021942 0.968482
vt 0.012342 0.003565
vt 0.022598 0.973659
vt 0.021942 0.971247
vt 0.012362 0.001638
vt 0.012217 0.003819
vt 0.022540 0.968130
vt 0.022070 0.968481
vt 0.022122 0.971245
vt 0.012210 0.000061
vt 0.012878 0.002797
vt 0.034458 0.000061
vt 0.034326 0.001598
vt 0.044718 0.963373
vt 0.044511 0.963378
vt 0.044006 0.962352
vt 0.034506 0.003738
vt 0.044657 0.967496
vt 0.044006 0.965100
vt 0.035051 0.002723
vt 0.034356 0.003485
vt 0.044601 0.962001
vt 0.044134 0.962349
vt 0.044184 0.965096
vt 0.035310 0.001501
vt 0.035258 0.003450
vt 0.500000 1.000000
vt 1.000000 0.500000
vt 0.853553 0.146447
vt 1.000000 0.000000
vt 1.000000 1.000000
vt 0.000000 1.000000
vt 0.063590 0.002512
vt 0.010675 0.005279
vt 0.023326 0.002539
vt 0.022901 0.005737
vt 0.045917 0.001544
vt 0.011507 0.003560
vt 0.033824 0.002733
vt 0.500000 0.000000
vt 0.146447 0.853553
vt 0.146447 0.146447
vt 0.000000 0.500000
vt 0.853553 0.853553
vn -1.000000 0.000000 0.000000
vn 0.000000 1.000000 0.000000
vn 1.000000 0.000000 0.000000
vn 0.000000 -1.000000 0.000000
vn 0.000000 0.000000 -1.000000
vn 0.000000 0.000000 1.000000
vn 0.382700 0.923900 0.000000
vn -0.382700 0.923900 0.000000
vn 0.382700 -0.923900 0.000000
vn -0.382700 -0.923900 0.000000
vn 0.923900 0.382700 0.000000
vn 0.923900 -0.382700 0.000000
vn -0.923900 -0.382700 0.000000
vn -0.923900 0.382700 0.000000
vn 0.630200 0.297100 -0.717300
vn 0.630200 0.717300 0.297100
vn 0.630200 0.297100 0.717300
vn 0.107400 0.259300 -0.959800
vn 0.630200 -0.297100 -0.717300
vn -0.167500 -0.404400 -0.899100
vn -0.404400 -0.167500 -0.899100
vn 0.259300 0.107400 -0.959800
vn -0.404400 0.167500 -0.899100
vn 0.630200 -0.297100 0.717300
vn 0.630200 -0.717300 -0.297100
vn -0.355700 -0.858700 0.368800
vn -0.858700 -0.355700 0.368800
vn -0.858700 -0.355700 -0.368800
vn -0.858700 0.355700 0.368800
vn -0.858700 0.355700 -0.368800
vn -0.355700 0.858700 0.368800
vn -0.355700 0.858700 -0.368800
vn 0.630200 0.717300 -0.297100
vn 0.630200 -0.717300 0.297100
vn 0.343300 -0.828800 0.441900
vn 0.259300 -0.107400 -0.959800
vn -0.167500 0.404400 -0.899100
vn 0.107400 -0.259300 0.959800
vn -0.167500 0.404400 0.899100
vn -0.404400 0.167500 0.899100
vn 0.343300 -0.828800 -0.441900
vn 0.828800 -0.343300 0.441900
vn 0.259300 -0.107400 0.959800
vn -0.404400 -0.167500 0.899100
vn 0.828800 -0.343300 -0.441900
vn 0.828800 0.343300 0.441900
vn 0.259300 0.107400 0.959800
vn -0.167500 -0.404400 0.899100
vn 0.828800 0.343300 -0.441900
vn 0.343300 0.828800 0.441900
vn 0.107400 0.259300 0.959800
vn 0.343300 0.828800 -0.441900
vn -0.355700 -0.858700 -0.368800
vn 0.107400 -0.259300 -0.959800
s off
f 4/1/1 3/1/1 1/1/1
f 8/1/2 7/1/2 3/1/2
f 6/1/3 5/1/3 7/1/3
f 2/1/4 1/1/4 5/1/4
f 3/1/5 7/1/5 5/1/5
f 8/1/6 4/1/6 2/1/6
f 12/1/1 11/1/1 9/1/1
f 16/1/2 15/1/2 11/1/2
f 14/1/3 13/1/3 15/1/3
f 10/1/4 9/1/4 13/1/4
f 11/1/5 15/1/5 13/1/5
f 16/1/6 12/1/6 10/1/6
f 20/1/1 19/1/1 17/1/1
f 24/1/2 23/1/2 19/1/2
f 22/1/3 21/1/3 23/1/3
f 18/1/4 17/1/4 21/1/4
f 19/1/5 23/1/5 21/1/5
f 24/1/6 20/1/6 18/1/6
f 28/1/1 27/1/1 25/1/1
f 32/1/2 31/1/2 27/1/2
f 30/1/3 29/1/3 31/1/3
f 26/1/4 25/1/4 29/1/4
f 27/1/5 31/1/5 29/1/5
f 32/1/6 28/1/6 26/1/6
f 36/1/1 35/1/1 33/1/1
f 40/1/2 39/1/2 35/1/2
f 38/1/3 37/1/3 39/1/3
f 34/1/4 33/1/4 37/1/4
f 35/1/5 39/1/5 37/1/5
f 40/1/6 36/1/6 34/1/6
f 188/2/1 187/3/1 185/4/1
f 192/5/2 191/6/2 187/3/2
f 190/7/3 189/8/3 191/6/3
f 186/9/4 185/4/4 189/8/4
f 192/5/6 188/2/6 186/9/6
f 191/8/5 189/4/5 185/3/5
f 2/1/1 4/1/1 1/1/1
f 4/1/2 8/1/2 3/1/2
f 8/1/3 6/1/3 7/1/3
f 6/1/4 2/1/4 5/1/4
f 1/1/5 3/1/5 5/1/5
f 6/1/6 8/1/6 2/1/6
f 10/1/1 12/1/1 9/1/1
f 12/1/2 16/1/2 11/1/2
f 16/1/3 14/1/3 15/1/3
f 14/1/4 10/1/4 13/1/4
f 9/1/5 11/1/5 13/1/5
f 14/1/6 16/1/6 10/1/6
f 18/1/1 20/1/1 17/1/1
f 20/1/2 24/1/2 19/1/2
f 24/1/3 22/1/3 23/1/3
f 22/1/4 18/1/4 21/1/4
f 17/1/5 19/1/5 21/1/5
f 22/1/6 24/1/6 18/1/6
f 26/1/1 28/1/1 25/1/1
f 28/1/2 32/1/2 27/1/2
f 32/1/3 30/1/3 31/1/3
f 30/1/4 26/1/4 29/1/4
f 25/1/5 27/1/5 29/1/5
f 30/1/6 32/1/6 26/1/6
f 34/1/1 36/1/1 33/1/1
f 36/1/2 40/1/2 35/1/2
f 40/1/3 38/1/3 39/1/3
f 38/1/4 34/1/4 37/1/4
f 33/1/5 35/1/5 37/1/5
f 38/1/6 40/1/6 34/1/6
f 186/9/1 188/2/1 185/4/1
f 188/2/2 192/5/2 187/3/2
f 192/5/3 190/7/3 191/6/3
f 190/7/4 186/9/4 189/8/4
f 190/7/6 192/5/6 186/9/6
f 187/6/5 191/8/5 185/3/5
s 1
f 43/10/7 50/11/8 55/12/8
f 46/13/9 54/14/10 51/15/10
f 42/16/11 45/17/12 47/18/12
f 52/19/13 53/20/13 56/21/14
f 41/22/7 42/16/11 44/23/11
f 45/17/12 46/13/9 48/24/9
f 54/14/10 53/20/13 52/19/13
f 56/21/14 55/12/8 50/11/8
f 59/25/7 66/26/8 71/27/8
f 62/28/9 70/29/10 67/30/10
f 58/31/11 61/32/12 63/33/12
f 68/34/13 69/35/13 72/36/14
f 57/37/7 58/31/11 60/38/11
f 61/32/12 62/28/9 64/39/9
f 70/29/10 69/35/13 68/34/13
f 72/36/14 71/27/8 66/26/8
f 75/40/7 82/41/8 87/42/8
f 78/43/9 86/44/10 83/45/10
f 74/46/11 77/47/12 79/48/12
f 84/49/13 85/50/13 88/51/14
f 73/52/7 74/46/11 76/53/11
f 79/48/12 77/47/12 78/43/9
f 83/45/10 86/44/10 85/50/13
f 88/51/14 87/42/8 82/41/8
f 91/54/7 98/55/8 103/56/8
f 94/57/9 102/58/10 99/59/10
f 90/60/11 93/61/12 95/62/12
f 100/63/13 101/64/13 104/65/14
f 89/66/7 90/60/11 92/67/11
f 93/61/12 94/57/9 96/68/9
f 102/58/10 101/64/13 100/63/13
f 104/65/14 103/56/8 98/55/8
f 107/69/7 114/70/8 119/71/8
f 110/72/9 118/73/10 115/74/10
f 106/75/11 109/76/12 111/77/12
f 116/78/13 117/79/13 120/80/14
f 105/81/7 106/75/11 108/82/11
f 109/76/12 110/72/9 112/83/9
f 118/73/10 117/79/13 116/78/13
f 120/80/14 119/71/8 114/70/8
f 123/84/7 130/85/8 135/86/8
f 126/87/9 134/88/10 131/89/10
f 122/90/11 125/91/12 127/92/12
f 132/93/13 133/94/13 136/95/14
f 121/96/7 122/90/11 124/97/11
f 125/91/12 126/87/9 128/98/9
f 134/88/10 133/94/13 132/93/13
f 136/95/14 135/86/8 130/85/8
f 147/99/15 159/100/16 160/101/17
f 145/1/18 147/102/15 162/103/19
f 145/102/18 167/103/20 171/104/21
f 143/102/22 171/103/21 175/104/23
f 149/99/24 137/100/25 138/101/19
f 165/102/26 169/103/27 172/104/28
f 169/102/27 173/103/29 176/104/30
f 173/102/29 177/103/31 180/104/32
f 177/102/31 181/103/16 184/104/33
f 137/102/25 150/103/34 151/104/35
f 141/102/36 175/103/23 179/104/37
f 152/102/38 178/103/39 174/104/40
f 140/102/41 151/103/35 153/104/42
f 154/102/43 174/103/40 170/104/44
f 142/102/45 153/103/42 155/104/46
f 156/102/47 170/103/44 166/104/48
f 144/102/49 155/103/46 157/104/50
f 158/102/51 166/103/48 163/104/24
f 146/102/52 157/103/50 159/104/16
f 164/102/34 165/103/26 168/104/53
f 152/1/38 149/102/24 182/103/17
f 138/102/19 137/103/25 140/104/41
f 141/1/36 139/102/54 140/103/41
f 141/102/36 142/103/45 144/104/49
f 143/102/22 144/103/49 146/104/52
f 147/1/15 145/102/18 146/103/52
f 151/1/35 150/102/34 149/103/24
f 151/102/35 152/103/38 154/104/43
f 153/102/42 154/103/43 156/104/47
f 157/1/50 155/102/46 156/103/47
f 157/102/50 158/103/51 160/104/17
f 166/102/48 165/103/26 164/104/34
f 161/1/25 168/102/53 167/103/20
f 166/1/48 170/102/44 169/103/27
f 172/102/28 171/103/21 167/104/20
f 170/1/44 174/102/40 173/103/29
f 176/102/30 175/103/23 171/104/21
f 178/102/39 177/103/31 173/104/29
f 176/1/30 180/102/32 179/103/37
f 178/1/39 182/102/17 181/103/16
f 184/102/33 183/103/15 179/104/37
f 139/102/54 179/103/37 183/104/15
f 41/22/7 43/10/7 55/12/8
f 48/24/9 46/13/9 51/15/10
f 44/23/11 42/16/11 47/18/12
f 49/105/14 52/19/13 56/21/14
f 43/10/7 41/22/7 44/23/11
f 47/18/12 45/17/12 48/24/9
f 51/15/10 54/14/10 52/19/13
f 49/105/14 56/21/14 50/11/8
f 57/37/7 59/25/7 71/27/8
f 64/39/9 62/28/9 67/30/10
f 60/38/11 58/31/11 63/33/12
f 65/106/14 68/34/13 72/36/14
f 59/25/7 57/37/7 60/38/11
f 63/33/12 61/32/12 64/39/9
f 67/30/10 70/29/10 68/34/13
f 65/106/14 72/36/14 66/26/8
f 73/52/7 75/40/7 87/42/8
f 80/107/9 78/43/9 83/45/10
f 76/53/11 74/46/11 79/48/12
f 81/108/14 84/49/13 88/51/14
f 75/40/7 73/52/7 76/53/11
f 80/107/9 79/48/12 78/43/9
f 84/49/13 83/45/10 85/50/13
f 81/108/14 88/51/14 82/41/8
f 89/66/7 91/54/7 103/56/8
f 96/68/9 94/57/9 99/59/10
f 92/67/11 90/60/11 95/62/12
f 97/109/14 100/63/13 104/65/14
f 91/54/7 89/66/7 92/67/11
f 95/62/12 93/61/12 96/68/9
f 99/59/10 102/58/10 100/63/13
f 97/109/14 104/65/14 98/55/8
f 105/81/7 107/69/7 119/71/8
f 112/83/9 110/72/9 115/74/10
f 108/82/11 106/75/11 111/77/12
f 113/110/14 116/78/13 120/80/14
f 107/69/7 105/81/7 108/82/11
f 111/77/12 109/76/12 112/83/9
f 115/74/10 118/73/10 116/78/13
f 113/110/14 120/80/14 114/70/8
f 121/96/7 123/84/7 135/86/8
f 128/98/9 126/87/9 131/89/10
f 124/97/11 122/90/11 127/92/12
f 129/111/14 132/93/13 136/95/14
f 123/84/7 121/96/7 124/97/11
f 127/92/12 125/91/12 128/98/9
f 131/89/10 134/88/10 132/93/13
f 129/111/14 136/95/14 130/85/8
f 163/112/24 162/113/19 147/99/15
f 163/112/24 164/114/34 161/115/25
f 147/99/15 160/101/17 163/112/24
f 147/99/15 148/116/33 159/100/16
f 163/112/24 161/115/25 162/113/19
f 167/104/20 145/1/18 162/103/19
f 143/1/22 145/102/18 171/104/21
f 141/1/36 143/102/22 175/104/23
f 183/112/15 182/113/17 149/99/24
f 183/112/15 184/114/33 181/115/16
f 149/99/24 138/101/19 183/112/15
f 149/99/24 150/116/34 137/100/25
f 183/112/15 181/115/16 182/113/17
f 168/1/53 165/102/26 172/104/28
f 172/1/28 169/102/27 176/104/30
f 176/1/30 173/102/29 180/104/32
f 180/1/32 177/102/31 184/104/33
f 140/1/41 137/102/25 151/104/35
f 139/1/54 141/102/36 179/104/37
f 154/1/43 152/102/38 174/104/40
f 142/1/45 140/102/41 153/104/42
f 156/1/47 154/102/43 170/104/44
f 144/1/49 142/102/45 155/104/46
f 158/1/51 156/102/47 166/104/48
f 146/1/52 144/102/49 157/104/50
f 160/1/17 158/102/51 163/104/24
f 148/1/33 146/102/52 159/104/16
f 161/1/25 164/102/34 168/104/53
f 178/104/39 152/1/38 182/103/17
f 139/1/54 138/102/19 140/104/41
f 142/104/45 141/1/36 140/103/41
f 143/1/22 141/102/36 144/104/49
f 145/1/18 143/102/22 146/104/52
f 148/104/33 147/1/15 146/103/52
f 152/104/38 151/1/35 149/103/24
f 153/1/42 151/102/35 154/104/43
f 155/1/46 153/102/42 156/104/47
f 158/104/51 157/1/50 156/103/47
f 159/1/16 157/102/50 160/104/17
f 163/1/24 166/102/48 164/104/34
f 162/104/19 161/1/25 167/103/20
f 165/104/26 166/1/48 169/103/27
f 168/1/53 172/102/28 167/104/20
f 169/104/27 170/1/44 173/103/29
f 172/1/28 176/102/30 171/104/21
f 174/1/40 178/102/39 173/104/29
f 175/104/23 176/1/30 179/103/37
f 177/104/31 178/1/39 181/103/16
f 180/1/32 184/102/33 179/104/37
f 138/1/19 139/102/54 183/104/15
