# Blender v2.75 (sub 0) OBJ File: 'Stanowisko.blend'
# www.blender.org
o Cube.001_Cube.007
v -4.510287 3.784825 0.466682
v -4.510287 3.784825 0.344712
v -4.632257 3.784825 0.466682
v -4.632257 3.784825 0.344712
v -4.510287 2.562052 0.466682
v -4.510287 2.562052 0.344712
v -4.632257 2.562052 0.466682
v -4.632257 2.562052 0.344712
v -4.632257 2.684022 0.466682
v -4.632257 2.684022 0.344712
v -4.632257 2.562053 0.466682
v -4.632257 2.562053 0.344712
v 4.362302 2.684022 0.466682
v 4.362302 2.684022 -1.141911
v 4.362302 2.562053 0.466682
v 4.362302 2.562053 -1.141911
v -7.563848 -1.296135 0.344712
v -7.563848 -1.296135 0.466682
v -7.563848 -1.174166 0.344712
v -7.563848 -1.174166 0.466682
v -5.047900 -1.174166 0.344712
v -5.047900 -1.174166 0.466682
v -4.925930 -1.174166 0.466682
v -4.925930 -1.174166 0.344712
v -4.925930 -1.296135 0.466682
v -4.925930 -1.296135 0.344712
v -5.047900 -1.296135 0.466682
v -5.047900 -1.296135 0.344712
v -4.925930 -3.379967 0.466682
v -4.925930 -3.379967 0.344712
v -5.047900 -3.379967 0.466682
v -5.047900 -3.379967 0.344712
v -4.925930 -2.050440 0.466682
v -4.925930 -2.050440 0.344712
v -4.925930 -2.172410 0.466682
v -4.925930 -2.172410 0.344712
v -8.260252 -3.501937 0.466682
v -8.260252 -3.501937 0.344712
v -8.382221 -3.501937 0.466682
v -8.382221 -3.501937 0.344712
v 4.362302 -2.050440 0.466682
v 4.362302 -2.050440 -1.141911
v 4.362302 -2.172410 0.466682
v 4.362302 -2.172410 -1.141911
v -4.927123 -3.379967 0.466682
v -4.927123 -3.379967 0.344712
v -4.927123 -3.501937 0.466682
v -4.927123 -3.501937 0.344712
v -8.383201 -3.379967 0.466682
v -8.383201 -3.379967 0.344712
v -8.383201 -3.501937 0.466682
v -8.383201 -3.501937 0.344712
v -8.260252 -4.365834 0.466682
v -8.260252 -4.365834 0.344712
v -8.382221 -4.365834 0.466682
v -8.382221 -4.365834 0.344712
vt 0.986477 0.167061
vt 0.009843 0.129557
vt 0.007245 0.128014
vt 0.999947 0.167578
vt 0.000053 0.129181
vt 0.007135 0.130895
vt 0.989830 0.167578
vt 0.989860 0.166803
vt 1.000000 0.000000
vt 1.000000 1.000000
vt 0.000000 1.000000
vt 0.000000 0.000000
vt 0.004042 0.001752
vt 0.000053 0.000279
vt 0.004300 0.000053
vt 0.826570 0.124819
vt 0.827311 0.126261
vt 0.831044 0.124024
vt 0.833203 0.126064
vt 0.007292 0.174924
vt 0.000053 0.174924
vt 0.000053 0.167685
vt 0.841253 0.127908
vt 0.826119 0.123934
vt 0.005712 0.001133
vt 0.827640 0.127908
vt 0.833358 0.121189
vt 0.007292 0.167685
vn 0.000000 0.000000 -1.000000
vn 0.000000 0.000000 1.000000
vn -1.000000 0.000000 0.000000
vn 1.000000 0.000000 0.000000
vn 0.000000 -1.000000 0.000000
vn 0.000000 1.000000 0.000000
vn -0.163100 0.000000 -0.986600
vn -0.158000 0.000000 -0.987400
s off
f 2/1/1 6/2/1 8/3/1
f 3/4/2 7/5/2 5/6/2
f 4/7/3 8/3/3 7/5/3
f 1/8/4 5/6/4 6/2/4
f 12/9/5 16/10/5 15/11/5
f 10/12/6 9/9/6 13/10/6
f 10/9/7 14/10/7 16/11/7
f 11/9/2 15/10/2 13/11/2
f 20/13/3 19/14/3 17/15/3
f 22/16/6 21/17/6 19/14/6
f 22/16/6 23/18/6 24/19/6
f 26/20/6 28/21/6 27/22/6
f 31/5/5 32/3/5 30/2/5
f 26/1/1 30/2/1 32/3/1
f 27/4/2 31/5/2 29/6/2
f 28/7/3 32/3/3 31/5/3
f 25/8/4 29/6/4 30/2/4
f 34/9/3 36/10/3 35/11/3
f 38/9/6 40/10/6 39/11/6
f 43/9/4 44/10/4 42/11/4
f 36/9/5 44/10/5 43/11/5
f 34/12/6 33/9/6 41/10/6
f 34/9/8 42/10/8 44/11/8
f 35/9/2 43/10/2 41/11/2
f 47/9/4 48/10/4 46/11/4
f 50/9/3 52/10/3 51/11/3
f 51/9/5 52/10/5 48/11/5
f 50/9/6 49/10/6 45/11/6
f 52/9/1 50/10/1 46/11/1
f 49/9/2 51/10/2 47/11/2
f 55/9/5 56/10/5 54/11/5
f 54/9/1 56/10/1 40/11/1
f 55/9/2 53/10/2 37/11/2
f 56/9/3 55/10/3 39/11/3
f 53/9/4 54/10/4 38/11/4
f 21/17/1 24/19/1 26/23/1
f 27/24/5 18/25/5 17/15/5
f 19/14/1 21/17/1 28/26/1
f 22/16/2 20/13/2 18/25/2
f 25/27/4 26/23/4 24/19/4
f 27/24/2 25/27/2 23/18/2
f 4/7/1 2/1/1 8/3/1
f 1/8/2 3/4/2 5/6/2
f 3/4/3 4/7/3 7/5/3
f 2/1/4 1/8/4 6/2/4
f 11/12/5 12/9/5 15/11/5
f 14/11/6 10/12/6 13/10/6
f 12/12/7 10/9/7 16/11/7
f 9/12/2 11/9/2 13/11/2
f 18/25/3 20/13/3 17/15/3
f 20/13/6 22/16/6 19/14/6
f 21/17/6 22/16/6 24/19/6
f 25/28/6 26/20/6 27/22/6
f 29/6/5 31/5/5 30/2/5
f 28/7/1 26/1/1 32/3/1
f 25/8/2 27/4/2 29/6/2
f 27/4/3 28/7/3 31/5/3
f 26/1/4 25/8/4 30/2/4
f 33/12/3 34/9/3 35/11/3
f 37/12/6 38/9/6 39/11/6
f 41/12/4 43/9/4 42/11/4
f 35/12/5 36/9/5 43/11/5
f 42/11/6 34/12/6 41/10/6
f 36/12/8 34/9/8 44/11/8
f 33/12/2 35/9/2 41/11/2
f 45/12/4 47/9/4 46/11/4
f 49/12/3 50/9/3 51/11/3
f 47/12/5 51/9/5 48/11/5
f 46/12/6 50/9/6 45/11/6
f 48/12/1 52/9/1 46/11/1
f 45/12/2 49/9/2 47/11/2
f 53/12/5 55/9/5 54/11/5
f 38/12/1 54/9/1 40/11/1
f 39/12/2 55/9/2 37/11/2
f 40/12/3 56/9/3 39/11/3
f 37/12/4 53/9/4 38/11/4
f 28/26/1 21/17/1 26/23/1
f 28/26/5 27/24/5 17/15/5
f 17/15/1 19/14/1 28/26/1
f 27/24/2 22/16/2 18/25/2
f 23/18/4 25/27/4 24/19/4
f 22/16/2 27/24/2 23/18/2
