# Blender v2.75 (sub 0) OBJ File: 'Stanowisko.blend'
# www.blender.org
o Cube_Cube.001
v -1.145922 -0.060985 -0.060985
v -1.145922 -0.060985 0.060985
v -1.145922 0.060985 -0.060985
v -1.145922 0.060985 0.060985
v 1.370026 0.060985 -0.060985
v 1.370026 0.060985 0.060985
v 1.491996 0.060985 0.060985
v 1.491996 0.060985 -0.060985
v 1.491996 -0.060985 0.060985
v 1.491996 -0.060985 -0.060985
v 1.370026 -0.060985 0.060985
v 1.370026 -0.060985 -0.060985
v 1.491996 -2.144817 0.060985
v 1.491996 -2.144817 -0.060985
v 1.370026 -2.144817 0.060985
v 1.370026 -2.144817 -0.060985
v 1.491996 -0.815290 0.060985
v 1.491996 -0.815290 -0.060985
v 1.491996 -0.937259 0.060985
v 1.491996 -0.937259 -0.060985
v -1.842325 -2.266787 0.060985
v -1.842325 -2.266787 -0.060985
v -1.964294 -2.266787 0.060985
v -1.964294 -2.266787 -0.060985
v 10.780228 -0.815290 0.060985
v 10.780228 -0.815290 -1.547608
v 10.780228 -0.937259 0.060985
v 10.780228 -0.937259 -1.547608
v 1.490803 -2.144817 0.060985
v 1.490803 -2.144817 -0.060985
v 1.490803 -2.266787 0.060985
v 1.490803 -2.266787 -0.060985
v -1.965273 -2.144817 0.060985
v -1.965273 -2.144817 -0.060985
v -1.965273 -2.266787 0.060985
v -1.965273 -2.266787 -0.060985
v -1.842325 -3.130683 0.060985
v -1.842325 -3.130683 -0.060985
v -1.964294 -3.130683 0.060985
v -1.964294 -3.130683 -0.060985
vt 0.004042 0.001752
vt 0.000053 0.000279
vt 0.004300 0.000053
vt 0.826570 0.124819
vt 0.827311 0.126261
vt 0.831044 0.124024
vt 0.833203 0.126064
vt 0.007292 0.174924
vt 0.000053 0.174924
vt 0.000053 0.167685
vt 0.000053 0.129181
vt 0.007245 0.128014
vt 0.009843 0.129557
vt 0.986477 0.167061
vt 0.999947 0.167578
vt 0.007135 0.130895
vt 0.989830 0.167578
vt 0.989860 0.166803
vt 1.000000 0.000000
vt 1.000000 1.000000
vt 0.000000 1.000000
vt 0.000000 0.000000
vt 0.841253 0.127908
vt 0.826119 0.123934
vt 0.005712 0.001133
vt 0.827640 0.127908
vt 0.833358 0.121189
vt 0.007292 0.167685
vn -1.000000 0.000000 0.000000
vn 0.000000 1.000000 0.000000
vn 0.000000 -1.000000 0.000000
vn 0.000000 0.000000 -1.000000
vn 0.000000 0.000000 1.000000
vn 1.000000 0.000000 0.000000
vn -0.158000 0.000000 -0.987400
s off
f 4/1/1 3/2/1 1/3/1
f 6/4/2 5/5/2 3/2/2
f 6/4/2 7/6/2 8/7/2
f 10/8/2 12/9/2 11/10/2
f 15/11/3 16/12/3 14/13/3
f 10/14/4 14/13/4 16/12/4
f 11/15/5 15/11/5 13/16/5
f 12/17/1 16/12/1 15/11/1
f 9/18/6 13/16/6 14/13/6
f 18/19/1 20/20/1 19/21/1
f 22/19/2 24/20/2 23/21/2
f 27/19/6 28/20/6 26/21/6
f 20/19/3 28/20/3 27/21/3
f 18/22/2 17/19/2 25/20/2
f 18/19/7 26/20/7 28/21/7
f 19/19/5 27/20/5 25/21/5
f 31/19/6 32/20/6 30/21/6
f 34/19/1 36/20/1 35/21/1
f 35/19/3 36/20/3 32/21/3
f 34/19/2 33/20/2 29/21/2
f 36/19/4 34/20/4 30/21/4
f 33/19/5 35/20/5 31/21/5
f 39/19/3 40/20/3 38/21/3
f 38/19/4 40/20/4 24/21/4
f 39/19/5 37/20/5 21/21/5
f 40/19/1 39/20/1 23/21/1
f 37/19/6 38/20/6 22/21/6
f 5/5/4 8/7/4 10/23/4
f 11/24/3 2/25/3 1/3/3
f 3/2/4 5/5/4 12/26/4
f 11/24/5 6/4/5 4/1/5
f 9/27/6 10/23/6 8/7/6
f 6/4/5 11/24/5 9/27/5
f 2/25/1 4/1/1 1/3/1
f 4/1/2 6/4/2 3/2/2
f 5/5/2 6/4/2 8/7/2
f 9/28/2 10/8/2 11/10/2
f 13/16/3 15/11/3 14/13/3
f 12/17/4 10/14/4 16/12/4
f 9/18/5 11/15/5 13/16/5
f 11/15/1 12/17/1 15/11/1
f 10/14/6 9/18/6 14/13/6
f 17/22/1 18/19/1 19/21/1
f 21/22/2 22/19/2 23/21/2
f 25/22/6 27/19/6 26/21/6
f 19/22/3 20/19/3 27/21/3
f 26/21/2 18/22/2 25/20/2
f 20/22/7 18/19/7 28/21/7
f 17/22/5 19/19/5 25/21/5
f 29/22/6 31/19/6 30/21/6
f 33/22/1 34/19/1 35/21/1
f 31/22/3 35/19/3 32/21/3
f 30/22/2 34/19/2 29/21/2
f 32/22/4 36/19/4 30/21/4
f 29/22/5 33/19/5 31/21/5
f 37/22/3 39/19/3 38/21/3
f 22/22/4 38/19/4 24/21/4
f 23/22/5 39/19/5 21/21/5
f 24/22/1 40/19/1 23/21/1
f 21/22/6 37/19/6 22/21/6
f 12/26/4 5/5/4 10/23/4
f 12/26/3 11/24/3 1/3/3
f 1/3/4 3/2/4 12/26/4
f 2/25/5 11/24/5 4/1/5
f 7/6/6 9/27/6 8/7/6
f 7/6/5 6/4/5 9/27/5
