# Blender v2.75 (sub 0) OBJ File: 'Stanowisko.blend'
# www.blender.org
o Track_Cube
v -0.269518 2.646924 -1.417521
v -0.269518 2.963441 -1.417521
v 0.269518 2.963441 -1.417521
v 0.269518 2.646924 -1.417521
v -0.181653 2.646924 0.216774
v -0.269518 2.646924 0.128909
v -0.269518 2.963441 0.128909
v -0.181653 2.963441 0.216774
v 0.181653 2.963441 0.216774
v 0.269518 2.963441 0.128909
v 0.269518 2.646924 0.128909
v 0.181653 2.646924 0.216774
v -0.683632 -0.281082 -0.281082
v -0.683632 0.281082 -0.281082
v 0.683632 0.281082 -0.281082
v 0.683632 -0.281082 -0.281082
v -0.683632 -0.281082 0.281082
v -0.683632 0.281082 0.281082
v 0.683632 0.281082 0.281082
v 0.683632 -0.281082 0.281082
v -0.418135 -0.254297 -0.281082
v -0.418135 0.254297 -0.281082
v 0.418135 0.254297 -0.281082
v 0.418135 -0.254297 -0.281082
v -0.418135 -0.254297 -1.415103
v -0.418135 0.254297 -1.415103
v 0.418135 0.254297 -1.415103
v 0.418135 -0.254297 -1.415103
v 11.638904 2.615445 0.192875
v 11.638904 0.296216 0.192876
v 11.684558 2.615444 0.187107
v 11.684558 0.296215 0.187108
v 11.727345 2.615444 0.170167
v 11.727345 0.296215 0.170168
v 11.764573 2.615444 0.143119
v 11.764573 0.296215 0.143120
v 11.793906 2.615443 0.107662
v 11.793906 0.296214 0.107662
v 11.813499 2.615442 0.066024
v 11.813499 0.296213 0.066025
v 11.822122 2.615442 0.020821
v 11.822122 0.296213 0.020822
v 11.819232 2.615441 -0.025105
v 11.819232 0.296212 -0.025105
v 11.805013 2.615440 -0.068871
v 11.805013 0.296211 -0.068870
v 11.780354 2.615439 -0.107725
v 11.780354 0.296210 -0.107724
v 11.746810 2.615439 -0.139226
v 11.746810 0.296210 -0.139225
v 11.706485 2.615438 -0.161395
v 11.706485 0.296209 -0.161394
v 11.661912 2.615438 -0.172839
v 11.661912 0.296209 -0.172838
v 0.023218 2.615438 -0.172839
v 0.023218 0.296209 -0.172838
v -0.021354 2.615438 -0.161395
v -0.021354 0.296209 -0.161394
v -0.061679 2.615439 -0.139226
v -0.061679 0.296210 -0.139225
v -0.095225 2.615439 -0.107724
v -0.095225 0.296210 -0.107724
v -0.119882 2.615440 -0.068871
v -0.119882 0.296211 -0.068870
v -0.134102 2.615441 -0.025105
v -0.134102 0.296212 -0.025104
v -0.136992 2.615442 0.020822
v -0.136992 0.296213 0.020822
v -0.128369 2.615442 0.066024
v -0.128369 0.296213 0.066025
v -0.108775 2.615443 0.107662
v -0.108775 0.296214 0.107663
v -0.079443 2.615444 0.143119
v -0.079443 0.296215 0.143120
v -0.042214 2.615444 0.170167
v -0.042214 0.296215 0.170168
v 0.000572 2.615444 0.187107
v 0.000572 0.296215 0.187108
v 11.645171 2.615445 0.292878
v 11.709624 2.615444 0.284735
v 11.709624 0.296215 0.284736
v 11.645171 0.296216 0.292879
v 11.775903 2.615444 0.258494
v 11.775903 0.296215 0.258495
v 11.833571 2.615444 0.216595
v 11.833571 0.296215 0.216596
v 11.879010 2.615443 0.161670
v 11.879010 0.296214 0.161671
v 11.909361 2.615442 0.097170
v 11.909361 0.296213 0.097171
v 11.922717 2.615442 0.027149
v 11.922717 0.296213 0.027150
v 11.918242 2.615441 -0.043992
v 11.918242 0.296212 -0.043991
v 11.896214 2.615440 -0.111787
v 11.896214 0.296211 -0.111786
v 11.858018 2.615439 -0.171974
v 11.858018 0.296210 -0.171973
v 11.806056 2.615439 -0.220770
v 11.806056 0.296210 -0.220769
v 11.743589 2.615438 -0.255111
v 11.743589 0.296209 -0.255111
v 11.674544 2.615438 -0.272839
v 11.674544 0.296209 -0.272838
v 0.010585 2.615438 -0.272839
v 0.010585 0.296209 -0.272838
v -0.058459 2.615438 -0.255111
v -0.058459 0.296209 -0.255111
v -0.120925 2.615439 -0.220770
v -0.120925 0.296210 -0.220769
v -0.172888 2.615439 -0.171973
v -0.172888 0.296210 -0.171973
v -0.211084 2.615440 -0.111787
v -0.211084 0.296211 -0.111786
v -0.233112 2.615441 -0.043992
v -0.233112 0.296212 -0.043991
v -0.237588 2.615442 0.027151
v -0.237588 0.296213 0.027151
v -0.224230 2.615442 0.097171
v -0.224230 0.296213 0.097172
v -0.193879 2.615443 0.161671
v -0.193879 0.296214 0.161671
v -0.148441 2.615444 0.216595
v -0.148441 0.296215 0.216596
v -0.090772 2.615444 0.258494
v -0.090772 0.296215 0.258495
v -0.018526 2.615444 0.287098
v -0.018526 0.296215 0.287099
vt 0.393406 0.054318
vt 0.456107 0.071803
vt 0.469148 0.093468
vt 0.491708 0.043372
vt 0.429007 0.025888
vt 0.415967 0.004222
vt 0.514059 0.000072
vt 0.578215 0.097618
vt 0.415169 0.052917
vt 0.469945 0.044773
vt 0.371056 0.097618
vt 0.306900 0.000072
vt 0.000072 0.999928
vt 0.046143 0.789051
vt 0.088840 0.725381
vt 0.142127 0.630065
vt 0.182505 0.568890
vt 0.127961 0.606352
vt 0.137752 0.531806
vt 0.066077 0.842334
vt 0.127109 0.601371
vt 0.185885 0.478670
vt 0.166234 0.507798
vt 0.088508 0.621804
vt 0.094977 0.304432
vt 0.306756 0.000072
vt 0.306756 0.295687
vt 0.180523 0.434989
vt 0.126300 0.387682
vt 0.126300 0.122703
vt 0.121084 0.122703
vt 0.131189 0.387682
vt 0.131189 0.122703
vt 0.135442 0.387682
vt 0.135442 0.122703
vt 0.270869 0.249752
vt 0.005890 0.249752
vt 0.005890 0.253803
vt 0.270869 0.244995
vt 0.005890 0.244995
vt 0.270869 0.239830
vt 0.005890 0.239830
vt 0.270869 0.234583
vt 0.005890 0.234583
vt 0.270869 0.229583
vt 0.005890 0.229583
vt 0.270869 0.225143
vt 0.005890 0.225143
vt 0.133413 0.387681
vt 0.133413 0.122702
vt 0.137245 0.122702
vt 0.128806 0.387681
vt 0.128806 0.122702
vt 0.123713 0.387681
vt 0.123713 0.122702
vt -1.266253 0.387681
vt -1.266253 0.122702
vt 0.099690 0.387681
vt 0.099690 0.122702
vt 0.104783 0.122702
vt 0.095083 0.387681
vt 0.095083 0.122702
vt 0.091250 0.387681
vt 0.091250 0.122702
vt 0.270869 0.253803
vt 0.093053 0.387682
vt 0.097307 0.387682
vt 0.097307 0.122703
vt 1.492119 0.387682
vt 1.492119 0.122703
vt 0.102195 0.122703
vt 0.102195 0.387682
vt 0.093053 0.122703
vt 0.104783 0.387681
vt 0.121084 0.387682
vt 0.137245 0.387681
vn 0.000000 -1.000000 -0.000000
vn 0.000000 1.000000 0.000000
vn 1.000000 0.000000 0.000000
vn 0.000000 0.000000 1.000000
vn -0.707100 0.000000 0.707100
vn 0.707100 0.000000 0.707100
vn -1.000000 0.000000 0.000000
vn 0.000000 0.000000 -1.000000
vn -0.125300 -0.000000 -0.992100
vn -0.368100 -0.000000 -0.929800
vn -0.587800 0.000000 -0.809000
vn -0.770500 0.000000 -0.637400
vn -0.904800 -0.000000 -0.425800
vn -0.982300 -0.000000 -0.187400
vn -0.998000 0.000000 0.062800
vn -0.951100 0.000000 0.309000
vn -0.844300 0.000000 0.535800
vn -0.684600 0.000000 0.729000
vn -0.481800 0.000000 0.876300
vn -0.248700 0.000000 0.968600
vn 0.248700 0.000000 0.968600
vn 0.481800 0.000000 0.876300
vn 0.684500 0.000000 0.729000
vn 0.844300 0.000000 0.535800
vn 0.951100 0.000000 0.309000
vn 0.998000 0.000000 0.062800
vn 0.982300 -0.000000 -0.187400
vn 0.904800 -0.000000 -0.425800
vn 0.770500 -0.000000 -0.637400
vn 0.587800 -0.000000 -0.809000
vn 0.000500 -0.000000 -1.000000
vn 0.368100 -0.000000 -0.929800
vn 0.125300 0.000000 0.992100
vn 0.368100 0.000000 0.929800
vn 0.587800 0.000000 0.809000
vn 0.770500 0.000000 0.637400
vn 0.904800 -0.000000 0.425800
vn 0.982300 -0.000000 0.187400
vn 0.998000 -0.000000 -0.062800
vn 0.951100 -0.000000 -0.309000
vn 0.844300 0.000000 -0.535800
vn 0.684600 -0.000000 -0.729000
vn 0.481800 -0.000000 -0.876300
vn 0.248700 -0.000000 -0.968600
vn -0.248700 -0.000000 -0.968600
vn -0.481800 -0.000000 -0.876300
vn -0.684500 -0.000000 -0.729000
vn -0.844300 -0.000000 -0.535800
vn -0.951100 -0.000000 -0.309000
vn -0.998000 -0.000000 -0.062800
vn -0.982300 0.000000 0.187400
vn -0.904800 0.000000 0.425800
vn -0.770500 0.000000 0.637400
vn -0.587800 0.000000 0.809000
vn -0.000500 0.000000 1.000000
vn -0.368100 0.000000 0.929800
s off
f 11/1/1 5/2/1 6/3/1
f 7/4/2 9/5/2 10/6/2
f 11/1/3 4/7/3 3/8/3
f 5/2/4 12/9/4 9/5/4
f 6/3/5 5/2/5 8/10/5
f 10/6/6 9/5/6 12/9/6
f 7/4/7 2/11/7 1/12/7
f 18/13/7 14/14/7 13/15/7
f 19/16/2 15/17/2 14/14/2
f 20/18/3 16/19/3 15/17/3
f 17/20/1 13/15/1 16/19/1
f 13/15/8 21/21/8 24/22/8
f 19/16/4 18/13/4 17/20/4
f 16/19/8 24/22/8 23/23/8
f 15/17/8 23/23/8 22/24/8
f 14/14/8 22/24/8 21/21/8
f 21/21/1 25/25/1 28/26/1
f 24/22/3 28/26/3 27/27/3
f 23/23/2 27/27/2 26/28/2
f 22/24/7 26/28/7 25/25/7
f 31/29/9 32/30/9 30/31/9
f 33/32/10 34/33/10 32/30/10
f 35/34/11 36/35/11 34/33/11
f 37/36/12 38/37/12 36/38/12
f 39/39/13 40/40/13 38/37/13
f 41/41/14 42/42/14 40/40/14
f 43/43/15 44/44/15 42/42/15
f 45/45/16 46/46/16 44/44/16
f 47/47/17 48/48/17 46/46/17
f 49/49/18 50/50/18 48/51/18
f 51/52/19 52/53/19 50/50/19
f 53/54/20 54/55/20 52/53/20
f 55/56/4 56/57/4 54/55/4
f 57/58/21 58/59/21 56/60/21
f 57/58/22 59/61/22 60/62/22
f 59/61/23 61/63/23 62/64/23
f 61/47/24 63/45/24 64/46/24
f 63/45/25 65/43/25 66/44/25
f 65/43/26 67/41/26 68/42/26
f 67/41/27 69/39/27 70/40/27
f 69/39/28 71/36/28 72/37/28
f 71/36/29 73/65/29 74/38/29
f 73/66/30 75/67/30 76/68/30
f 29/69/31 30/70/31 78/71/31
f 77/72/32 78/71/32 76/68/32
f 82/31/33 81/30/33 80/29/33
f 81/30/34 84/33/34 83/32/34
f 84/33/35 86/35/35 85/34/35
f 86/38/36 88/37/36 87/36/36
f 88/37/37 90/40/37 89/39/37
f 90/40/38 92/42/38 91/41/38
f 92/42/39 94/44/39 93/43/39
f 94/44/40 96/46/40 95/45/40
f 96/46/41 98/48/41 97/47/41
f 98/51/42 100/50/42 99/49/42
f 100/50/43 102/53/43 101/52/43
f 102/53/44 104/55/44 103/54/44
f 104/55/8 106/57/8 105/56/8
f 106/60/45 108/59/45 107/58/45
f 107/58/46 108/59/46 110/62/46
f 109/61/47 110/62/47 112/64/47
f 111/47/48 112/48/48 114/46/48
f 113/45/49 114/46/49 116/44/49
f 115/43/50 116/44/50 118/42/50
f 117/41/51 118/42/51 120/40/51
f 119/39/52 120/40/52 122/37/52
f 121/36/53 122/37/53 124/38/53
f 123/66/54 124/73/54 126/68/54
f 127/72/55 128/71/55 82/70/55
f 125/67/56 126/68/56 128/71/56
f 52/53/1 102/53/1 100/50/1
f 111/47/2 113/45/2 63/45/2
f 77/72/2 127/72/2 79/69/2
f 68/42/1 118/42/1 116/44/1
f 34/33/1 84/33/1 81/30/1
f 93/43/2 95/45/2 45/45/2
f 50/50/1 100/50/1 98/51/1
f 109/61/2 111/63/2 61/63/2
f 125/67/2 127/72/2 77/72/2
f 116/44/1 114/46/1 64/46/1
f 91/41/2 93/43/2 43/43/2
f 107/58/2 109/61/2 59/61/2
f 98/48/1 96/46/1 46/46/1
f 123/66/2 125/67/2 75/67/2
f 39/39/2 89/39/2 91/41/2
f 114/46/1 112/48/1 62/48/1
f 82/70/1 128/71/1 78/71/1
f 46/46/1 96/46/1 94/44/1
f 55/74/2 105/74/2 107/58/2
f 71/36/2 121/36/2 123/65/2
f 112/64/1 110/62/1 60/62/1
f 37/36/2 87/36/2 89/39/2
f 78/71/1 128/71/1 126/68/1
f 94/44/1 92/42/1 42/42/1
f 103/54/2 105/56/2 55/56/2
f 119/39/2 121/36/2 71/36/2
f 85/65/2 87/36/2 37/36/2
f 110/62/1 108/59/1 58/59/1
f 76/68/1 126/68/1 124/73/1
f 51/52/2 101/52/2 103/54/2
f 79/75/2 80/29/2 31/29/2
f 92/42/1 90/40/1 40/40/1
f 117/41/2 119/39/2 69/39/2
f 108/59/1 106/60/1 56/60/1
f 33/32/2 83/32/2 85/34/2
f 124/38/1 122/37/1 72/37/1
f 90/40/1 88/37/1 38/37/1
f 99/49/2 101/52/2 51/52/2
f 115/43/2 117/41/2 67/41/2
f 106/57/1 104/55/1 54/55/1
f 80/29/2 83/32/2 33/32/2
f 72/37/1 122/37/1 120/40/1
f 38/37/1 88/37/1 86/38/1
f 97/76/2 99/49/2 49/49/2
f 63/45/2 113/45/2 115/43/2
f 32/30/1 81/30/1 82/31/1
f 104/55/1 102/53/1 52/53/1
f 120/40/1 118/42/1 68/42/1
f 86/35/1 84/33/1 34/33/1
f 45/45/2 95/45/2 97/47/2
f 1/12/1 4/7/1 11/1/1
f 11/1/1 6/3/1 1/12/1
f 11/1/1 12/9/1 5/2/1
f 3/8/2 2/11/2 7/4/2
f 7/4/2 10/6/2 3/8/2
f 7/4/2 8/10/2 9/5/2
f 10/6/3 11/1/3 3/8/3
f 8/10/4 5/2/4 9/5/4
f 7/4/5 6/3/5 8/10/5
f 11/1/6 10/6/6 12/9/6
f 6/3/7 7/4/7 1/12/7
f 17/20/7 18/13/7 13/15/7
f 18/13/2 19/16/2 14/14/2
f 19/16/3 20/18/3 15/17/3
f 20/18/1 17/20/1 16/19/1
f 16/19/8 13/15/8 24/22/8
f 20/18/4 19/16/4 17/20/4
f 15/17/8 16/19/8 23/23/8
f 14/14/8 15/17/8 22/24/8
f 13/15/8 14/14/8 21/21/8
f 24/22/1 21/21/1 28/26/1
f 23/23/3 24/22/3 27/27/3
f 22/24/2 23/23/2 26/28/2
f 21/21/7 22/24/7 25/25/7
f 29/75/9 31/29/9 30/31/9
f 31/29/10 33/32/10 32/30/10
f 33/32/11 35/34/11 34/33/11
f 35/65/12 37/36/12 36/38/12
f 37/36/13 39/39/13 38/37/13
f 39/39/14 41/41/14 40/40/14
f 41/41/15 43/43/15 42/42/15
f 43/43/16 45/45/16 44/44/16
f 45/45/17 47/47/17 46/46/17
f 47/76/18 49/49/18 48/51/18
f 49/49/19 51/52/19 50/50/19
f 51/52/20 53/54/20 52/53/20
f 53/54/4 55/56/4 54/55/4
f 55/74/21 57/58/21 56/60/21
f 58/59/22 57/58/22 60/62/22
f 60/62/23 59/61/23 62/64/23
f 62/48/24 61/47/24 64/46/24
f 64/46/25 63/45/25 66/44/25
f 66/44/26 65/43/26 68/42/26
f 68/42/27 67/41/27 70/40/27
f 70/40/28 69/39/28 72/37/28
f 72/37/29 71/36/29 74/38/29
f 74/73/30 73/66/30 76/68/30
f 77/72/31 29/69/31 78/71/31
f 75/67/32 77/72/32 76/68/32
f 79/75/33 82/31/33 80/29/33
f 80/29/34 81/30/34 83/32/34
f 83/32/35 84/33/35 85/34/35
f 85/65/36 86/38/36 87/36/36
f 87/36/37 88/37/37 89/39/37
f 89/39/38 90/40/38 91/41/38
f 91/41/39 92/42/39 93/43/39
f 93/43/40 94/44/40 95/45/40
f 95/45/41 96/46/41 97/47/41
f 97/76/42 98/51/42 99/49/42
f 99/49/43 100/50/43 101/52/43
f 101/52/44 102/53/44 103/54/44
f 103/54/8 104/55/8 105/56/8
f 105/74/45 106/60/45 107/58/45
f 109/61/46 107/58/46 110/62/46
f 111/63/47 109/61/47 112/64/47
f 113/45/48 111/47/48 114/46/48
f 115/43/49 113/45/49 116/44/49
f 117/41/50 115/43/50 118/42/50
f 119/39/51 117/41/51 120/40/51
f 121/36/52 119/39/52 122/37/52
f 123/65/53 121/36/53 124/38/53
f 125/67/54 123/66/54 126/68/54
f 79/69/55 127/72/55 82/70/55
f 127/72/56 125/67/56 128/71/56
f 50/50/1 52/53/1 100/50/1
f 61/47/2 111/47/2 63/45/2
f 29/69/2 77/72/2 79/69/2
f 66/44/1 68/42/1 116/44/1
f 32/30/1 34/33/1 81/30/1
f 43/43/2 93/43/2 45/45/2
f 48/51/1 50/50/1 98/51/1
f 59/61/2 109/61/2 61/63/2
f 75/67/2 125/67/2 77/72/2
f 66/44/1 116/44/1 64/46/1
f 41/41/2 91/41/2 43/43/2
f 57/58/2 107/58/2 59/61/2
f 48/48/1 98/48/1 46/46/1
f 73/66/2 123/66/2 75/67/2
f 41/41/2 39/39/2 91/41/2
f 64/46/1 114/46/1 62/48/1
f 30/70/1 82/70/1 78/71/1
f 44/44/1 46/46/1 94/44/1
f 57/58/2 55/74/2 107/58/2
f 73/65/2 71/36/2 123/65/2
f 62/64/1 112/64/1 60/62/1
f 39/39/2 37/36/2 89/39/2
f 76/68/1 78/71/1 126/68/1
f 44/44/1 94/44/1 42/42/1
f 53/54/2 103/54/2 55/56/2
f 69/39/2 119/39/2 71/36/2
f 35/65/2 85/65/2 37/36/2
f 60/62/1 110/62/1 58/59/1
f 74/73/1 76/68/1 124/73/1
f 53/54/2 51/52/2 103/54/2
f 29/75/2 79/75/2 31/29/2
f 42/42/1 92/42/1 40/40/1
f 67/41/2 117/41/2 69/39/2
f 58/59/1 108/59/1 56/60/1
f 35/34/2 33/32/2 85/34/2
f 74/38/1 124/38/1 72/37/1
f 40/40/1 90/40/1 38/37/1
f 49/49/2 99/49/2 51/52/2
f 65/43/2 115/43/2 67/41/2
f 56/57/1 106/57/1 54/55/1
f 31/29/2 80/29/2 33/32/2
f 70/40/1 72/37/1 120/40/1
f 36/38/1 38/37/1 86/38/1
f 47/76/2 97/76/2 49/49/2
f 65/43/2 63/45/2 115/43/2
f 30/31/1 32/30/1 82/31/1
f 54/55/1 104/55/1 52/53/1
f 70/40/1 120/40/1 68/42/1
f 36/35/1 86/35/1 34/33/1
f 47/47/2 45/45/2 97/47/2
